:SAMPLES-PER-SECOND 30
:FULLY-SPECIFIED
:DEGREES
152
root  21.8598 38.9585 -0.799099 26.3934 82.7651 30.2262
RightUpLeg  -11.4766 -22.3844 -7.10512
RightLeg  59.6406 -1.76229 -3.76202
RightFoot  4.53208 -0.71208 5.27159
RightToes  0.00048216 0.542163 -0.142577
Spine  20.9481 1.7179 -3.09626
Spine1  16.8912 2.26221 -2.42098
HEad  10.8847 -5.13453 -1.49887
LeftShoulder1  10.0261 -17.5109 -41.3571
LeftArm  -1.34471 -39.1584 -39.5427
LeftForeArm  4.4551 -32.3435 -6.88805
LeftHand  -0.25398 0.0180481 5.50724
RightShoulder  7.20566 13.9305 35.3434
RightArm  -12.982 22.9934 24.6492
RightForeArm  -29.1933 43.7509 12.3727
RightHand  -0.419218 1.61365 -7.12795
LeftUpLeg  -16.7453 26.8066 -9.47608
LeftLeg  18.6514 -1.04576 -0.194648
LeftFoot  0.0871821 -0.799397 7.96187
LeftToes  1.06246e-005 4.65855e-005 -8.185e-006
153
root  22.4993 39.0576 -0.602382 30.9253 83.1648 34.376
RightUpLeg  -16.0709 -22.5935 -7.93958
RightLeg  62.1438 -1.06984 -2.77174
RightFoot  4.50753 -0.63653 4.79887
RightToes  0.00048216 0.542163 -0.142577
Spine  22.2387 1.54709 -2.52251
Spine1  17.0496 2.20183 -2.60371
HEad  10.5362 -5.9692 -1.45995
LeftShoulder1  10.1542 -17.6511 -41.6274
LeftArm  -1.74837 -40.4625 -39.2315
LeftForeArm  3.91184 -31.9791 -6.82414
LeftHand  -0.25398 0.0180481 5.50724
RightShoulder  7.1001 13.925 34.7605
RightArm  -12.9234 25.5067 23.7677
RightForeArm  -29.4032 42.8569 12.0274
RightHand  -0.377549 1.37489 -6.63824
LeftUpLeg  -15.951 26.4118 -9.14122
LeftLeg  18.7553 -1.22786 -0.324662
LeftFoot  -0.888864 -0.626655 6.89407
LeftToes  1.06246e-005 4.65855e-005 -8.185e-006
154
root  23.1119 39.1852 -0.391221 31.0986 83.4902 33.9801
RightUpLeg  -19.983 -22.4597 -8.16659
RightLeg  60.7782 -1.12078 -2.6869
RightFoot  2.94001 -0.672641 5.52252
RightToes  0.00048216 0.542163 -0.142577
Spine  23.5486 1.3937 -1.26515
Spine1  16.886 2.39294 -3.01512
HEad  10.5574 -6.88964 -1.34156
LeftShoulder1  10.2785 -17.8307 -41.7925
LeftArm  -2.34585 -41.6945 -38.9344
LeftForeArm  3.38165 -31.271 -6.67134
LeftHand  -0.25398 0.0180481 5.50724
RightShoulder  7.0289 13.9797 34.232
RightArm  -12.8053 27.9403 22.9281
RightForeArm  -29.9044 41.7289 11.619
RightHand  -0.32714 1.04044 -6.03467
LeftUpLeg  -15.1626 25.6749 -8.2335
LeftLeg  18.5576 -0.893328 -0.428671
LeftFoot  -1.78288 -0.465135 5.69502
LeftToes  1.06246e-005 4.65855e-005 -8.185e-006
155
root  23.7203 39.3202 -0.146175 30.3626 83.7066 32.7076
RightUpLeg  -22.9799 -21.9664 -8.24676
RightLeg  56.017 -1.75111 -3.21633
RightFoot  2.07885 -0.61196 5.31442
RightToes  0.00048216 0.542163 -0.142577
Spine  24.8053 1.25623 -0.324951
Spine1  16.5571 2.47009 -3.16062
HEad  10.7656 -7.66425 -1.10043
LeftShoulder1  10.327 -17.9264 -41.8018
LeftArm  -3.37685 -42.6514 -38.3004
LeftForeArm  3.08613 -30.5851 -6.51385
LeftHand  -0.25398 0.0180481 5.50724
RightShoulder  6.98583 14.1011 33.7135
RightArm  -11.8828 30.8834 22.446
RightForeArm  -30.6391 39.3428 10.7955
RightHand  -0.283639 1.07113 -5.23213
LeftUpLeg  -14.1844 24.8903 -7.12407
LeftLeg  18.0508 -0.0171414 -0.711444
LeftFoot  -2.51733 -0.401432 5.40094
LeftToes  1.06246e-005 4.65855e-005 -8.185e-006
156
root  24.3222 39.4507 0.136077 32.8771 84.1323 34.8245
RightUpLeg  -24.6515 -21.7858 -8.54009
RightLeg  48.3784 -2.6195 -3.49535
RightFoot  1.7021 -0.461602 4.13574
RightToes  0.00048216 0.542163 -0.142577
Spine  25.9202 1.01339 0.219782
Spine1  16.348 2.22147 -2.88562
HEad  10.7869 -8.41087 -0.758494
LeftShoulder1  10.3713 -17.9856 -41.8699
LeftArm  -4.39676 -43.7757 -37.2347
LeftForeArm  2.68159 -29.6748 -6.30985
LeftHand  -0.25398 0.0180481 5.50724
RightShoulder  6.96102 14.2412 33.2616
RightArm  -10.2799 34.3863 22.2166
RightForeArm  -31.6326 35.6954 9.64269
RightHand  -0.246057 1.55417 -4.29195
LeftUpLeg  -13.0295 23.851 -6.107
LeftLeg  17.3746 0.835306 -1.07567
LeftFoot  -3.05378 -0.340849 4.95031
LeftToes  1.06246e-005 4.65855e-005 -8.185e-006
157
root  24.9301 39.4952 0.479519 41.141 84.5922 42.6868
RightUpLeg  -25.054 -22.2399 -9.25194
RightLeg  38.6141 -3.18235 -3.00284
RightFoot  0.962676 -0.463675 4.37422
RightToes  0.00048216 0.542163 -0.142577
Spine  26.7718 0.753312 0.472799
Spine1  16.2624 1.94441 -2.72561
HEad  10.6204 -9.36126 -0.495547
LeftShoulder1  10.4851 -18.1506 -42.0154
LeftArm  -4.80267 -45.3677 -36.2293
LeftForeArm  1.89097 -28.0944 -5.97012
LeftHand  -0.25398 0.0180481 5.50724
RightShoulder  6.96263 14.3588 33.012
RightArm  -9.08553 37.7029 21.8913
RightForeArm  -32.5854 31.8785 8.55787
RightHand  -0.209452 2.15316 -3.44397
LeftUpLeg  -12.3332 22.7942 -5.53599
LeftLeg  17.488 0.910255 -1.40937
LeftFoot  -3.80353 -0.214408 3.59136
LeftToes  1.06246e-005 4.65855e-005 -8.185e-006
158
root  25.5824 39.4622 0.906201 54.0119 84.5296 55.0066
RightUpLeg  -24.7982 -23.0729 -10.2648
RightLeg  27.6712 -2.66938 -1.88532
RightFoot  0.583149 -0.608636 5.8468
RightToes  0.00048216 0.542163 -0.142577
Spine  27.2527 0.646678 0.31844
Spine1  16.1505 1.90551 -2.95704
HEad  10.4559 -10.512 -0.286925
LeftShoulder1  10.6172 -18.4138 -42.0326
LeftArm  -4.52738 -47.1909 -35.5989
LeftForeArm  0.855055 -25.9589 -5.52179
LeftHand  -0.25398 0.0180481 5.50724
RightShoulder  6.98996 14.4321 33.0042
RightArm  -9.0521 40.2603 21.5194
RightForeArm  -32.8698 28.7998 7.74568
RightHand  -0.179554 2.58171 -2.86524
LeftUpLeg  -11.9935 21.5901 -5.41435
LeftLeg  18.1233 1.04196 -1.76529
LeftFoot  -4.73773 -0.117155 2.54072
LeftToes  1.06246e-005 4.65855e-005 -8.185e-006
159
root  26.274 39.461 1.38283 66.434 83.8344 66.7731
RightUpLeg  -23.962 -22.2175 -12.1916
RightLeg  16.2491 -2.57083 -0.402634
RightFoot  1.57132 -0.683587 6.14448
RightToes  0.00048216 0.542163 -0.142577
Spine  27.5305 0.646644 -0.0319155
Spine1  16.0271 1.91933 -3.17795
HEad  10.2366 -11.6539 0.153659
LeftShoulder1  10.7028 -18.6329 -41.9434
LeftArm  -4.03271 -48.8632 -34.9485
LeftForeArm  -0.191046 -23.8327 -5.12308
LeftHand  -0.25398 0.0180481 5.50724
RightShoulder  7.01245 14.4532 33.0835
RightArm  -9.52094 42.1755 21.5279
RightForeArm  -32.4013 26.4518 7.13933
RightHand  -0.158166 2.9112 -2.48562
LeftUpLeg  -11.2491 20.2172 -5.54821
LeftLeg  17.8206 1.82044 -2.12361
LeftFoot  -5.38234 -0.0888475 2.33722
LeftToes  1.06246e-005 4.65855e-005 -8.185e-006
160
root  26.9956 39.445 1.90738 77.5984 82.7515 77.3848
RightUpLeg  -22.0603 -16.9443 -16.5413
RightLeg  5.88809 -7.03493 1.47217
RightFoot  2.75791 -0.66318 5.5037
RightToes  0.00048216 0.542163 -0.142577
Spine  27.8579 0.59641 -0.516895
Spine1  15.8726 1.75449 -3.2749
HEad  9.8268 -12.6428 0.855149
LeftShoulder1  10.7815 -18.7611 -42.0121
LeftArm  -3.90621 -50.2147 -33.8873
LeftForeArm  -0.968386 -22.0283 -5.01888
LeftHand  -0.25398 0.0180481 5.50724
RightShoulder  6.99975 14.4322 33.0586
RightArm  -9.3942 43.6963 21.9465
RightForeArm  -31.9109 24.5022 6.67602
RightHand  -0.146551 3.38178 -2.24172
LeftUpLeg  -10.317 19.4757 -5.96932
LeftLeg  17.2672 1.71394 -2.34243
LeftFoot  -6.08643 -0.0312552 1.4486
LeftToes  1.06246e-005 4.65855e-005 -8.185e-006
161
root  27.7643 39.3342 2.51253 87.1871 81.6039 86.6507
RightUpLeg  -20.9516 -16.2798 -18.434
RightLeg  -0.73145 -8.46946 2.33214
RightFoot  2.37563 -0.680798 5.80194
RightToes  0.00048216 0.542163 -0.142577
Spine  28.3342 0.46659 -0.918603
Spine1  15.6366 1.52375 -3.40124
HEad  9.35531 -13.4857 1.46339
LeftShoulder1  10.8995 -18.8788 -42.2647
LeftArm  -4.32401 -51.2066 -32.7104
LeftForeArm  -1.25689 -20.498 -5.28481
LeftHand  -0.25398 0.0180481 5.50724
RightShoulder  6.93949 14.3762 32.8447
RightArm  -8.80503 44.808 22.3993
RightForeArm  -31.7073 22.9317 6.49298
RightHand  -0.161427 4.05881 -2.31783
LeftUpLeg  -9.83589 20.0714 -6.50216
LeftLeg  17.9874 -0.492945 -2.13619
LeftFoot  -7.18733 0.06267 -0.54568
LeftToes  1.06246e-005 4.65855e-005 -8.185e-006
162
root  28.5589 39.1674 3.19888 94.1684 80.771 93.5127
RightUpLeg  -20.5697 -17.0045 -18.8273
RightLeg  -2.00569 -10.2783 2.98775
RightFoot  1.55182 -0.728468 6.50218
RightToes  0.00048216 0.542163 -0.142577
Spine  28.9612 0.376187 -0.882584
Spine1  15.5205 1.3824 -3.36068
HEad  8.97067 -14.2154 1.86134
LeftShoulder1  10.9951 -19.0014 -42.4119
LeftArm  -4.91214 -51.8554 -31.8461
LeftForeArm  -1.26517 -19.2814 -5.63127
LeftHand  -0.25398 0.0180481 5.50724
RightShoulder  6.82164 14.2751 32.4031
RightArm  -8.62 45.5675 22.9264
RightForeArm  -31.2185 21.8168 6.62387
RightHand  -0.207443 4.75007 -2.74186
LeftUpLeg  -9.67683 20.7451 -6.60451
LeftLeg  19.6914 -2.66994 -1.38312
LeftFoot  -8.40591 0.0975336 -1.76592
LeftToes  1.06246e-005 4.65855e-005 -8.185e-006
